<svg width="16" height="8" viewBox="0 0 16 8" fill="none" xmlns="http://www.w3.org/2000/svg">
<path d="M0.183313 4.31741C0.183501 4.3176 0.183657 4.31782 0.183875 4.318L3.44963 7.568C3.69428 7.81147 4.09 7.81056 4.33353 7.56588C4.57703 7.32122 4.57609 6.9255 4.33144 6.682L2.13881 4.5L15.375 4.50001C15.7202 4.50001 16 4.22019 16 3.87501C16 3.52982 15.7202 3.25001 15.375 3.25001L2.13884 3.25001L4.33141 1.06801C4.57606 0.824509 4.577 0.428791 4.3335 0.184134C4.08997 -0.0605842 3.69422 -0.0614277 3.44959 0.18201L0.183844 3.43201C0.183656 3.43219 0.1835 3.43241 0.183281 3.4326C-0.0615002 3.67691 -0.0607182 4.07391 0.183313 4.31741Z" fill="#505050"/>
</svg>
